<?xml version="1.0" standalone="no"?>
<!DOCTYPE svg PUBLIC "-//W3C//DTD SVG 20010904//EN"
 "http://www.w3.org/TR/2001/REC-SVG-20010904/DTD/svg10.dtd">
<svg version="1.0" xmlns="http://www.w3.org/2000/svg"
 width="612.000000pt" height="612.000000pt" viewBox="0 0 612.000000 612.000000"
 preserveAspectRatio="xMidYMid meet">
<metadata>
Created by potrace 1.14, written by Peter Selinger 2001-2017
</metadata>
<g transform="translate(0.000000,612.000000) scale(0.100000,-0.100000)"
fill="#000000" stroke="none">
<path d="M3432 4453 c-6 -15 -25 -80 -41 -143 -17 -63 -55 -209 -85 -325 -30
-115 -113 -437 -186 -713 -72 -277 -130 -506 -127 -508 2 -2 20 11 41 28 41
37 13 -56 287 943 54 194 97 348 161 573 24 83 37 147 32 151 -5 5 -23 12 -40
15 -28 6 -32 4 -42 -21z"/>
<path d="M4025 3639 c-93 -83 -282 -251 -420 -373 -137 -121 -391 -347 -565
-501 -174 -154 -382 -338 -463 -410 -81 -71 -147 -136 -147 -143 0 -19 27 -25
48 -10 28 19 345 287 682 577 162 139 476 409 698 599 221 190 402 351 402
357 0 14 -42 55 -56 55 -5 0 -85 -68 -179 -151z"/>
<path d="M2820 3744 c-199 -30 -372 -97 -516 -199 -72 -52 -206 -191 -257
-268 -280 -421 -241 -968 93 -1323 143 -152 285 -240 455 -282 116 -29 188
-35 290 -22 97 12 159 35 189 69 20 22 20 22 -2 43 -14 14 -40 24 -74 29 -95
12 -277 58 -346 87 -306 128 -499 444 -479 782 8 125 26 193 89 320 45 92 63
116 142 195 169 168 341 233 586 222 l126 -5 18 65 c13 48 14 69 6 77 -7 7
-68 11 -178 11 -140 -1 -179 -4 -242 -22 -41 -12 -76 -20 -78 -18 -7 7 130 45
202 56 68 11 248 7 293 -6 18 -6 22 -2 28 25 4 17 4 34 1 37 -22 23 -278 31
-382 12 -308 -54 -574 -259 -711 -549 -38 -78 -83 -228 -83 -272 0 -12 -4 -16
-11 -12 -17 10 -4 197 16 254 98 271 329 497 615 603 96 36 299 76 394 78 44
1 47 2 21 9 -31 8 -161 10 -205 4z"/>
<path d="M3306 3548 c-3 -13 -6 -26 -6 -30 0 -4 33 -24 73 -44 77 -38 180
-108 211 -143 17 -19 43 -20 31 -1 -3 4 5 10 17 14 22 5 22 6 -7 36 -58 61
-264 190 -303 190 -5 0 -12 -10 -16 -22z"/>
<path d="M3275 3433 c-9 -32 -19 -65 -21 -74 -3 -12 14 -27 63 -54 37 -20 87
-53 111 -72 48 -39 41 -40 118 28 l42 37 -27 25 c-42 39 -156 115 -208 138
-26 12 -51 24 -55 26 -4 2 -15 -22 -23 -54z"/>
<path d="M3737 3234 c-3 -3 9 -27 27 -52 83 -118 143 -265 166 -402 18 -111
20 -113 16 -20 -5 128 -65 293 -153 428 -34 51 -43 58 -56 46z"/>
<path d="M3710 3203 c1 -11 90 -150 90 -139 0 15 -72 146 -81 146 -5 0 -9 -3
-9 -7z"/>
<path d="M3654 3157 l-27 -24 40 -59 c105 -158 157 -370 134 -549 -12 -92 -46
-214 -85 -300 -18 -39 -22 -55 -11 -44 25 25 104 224 115 292 6 34 14 87 19
117 l9 55 1 -50 c2 -77 -25 -223 -59 -319 -47 -133 -83 -188 -209 -321 -42
-44 -60 -66 -41 -50 19 16 71 66 115 111 145 147 225 355 225 583 0 129 -10
203 -42 301 -33 103 -127 280 -149 280 -4 0 -20 -10 -35 -23z"/>
<path d="M3593 3105 c-21 -15 -21 -16 23 -92 25 -43 59 -121 76 -173 28 -86
31 -107 32 -225 1 -165 -12 -224 -79 -360 -61 -123 -156 -238 -245 -296 -28
-18 -50 -34 -50 -36 0 -10 122 61 164 95 284 235 350 691 149 1034 -40 68 -44
71 -70 53z"/>
<path d="M2965 2578 c-32 -30 -39 -48 -76 -191 -30 -113 -39 -161 -31 -169 23
-23 40 5 75 128 20 71 45 159 56 197 11 37 18 67 15 67 -2 0 -20 -15 -39 -32z"/>
</g>
</svg>
